# xmcd
#
# Track frame offsets:
#	151
#	38364
#	75729
#	84841
#	102989
#	121012
#	138401
#	157226
#	170779
#	181014
#	194596
#
# Disc length: 3058 seconds
#
# Revision: 0
# Processed by: cddbd v1.5.2PL0 Copyright (c) Steve Scherf et al.
# Submitted via: audiograbber 1.83.01
#
DISCID=850bf00b
DTITLE=Lázaro Ros El Akpwón Mayor - Canto a los ORISHAS Vol.I
DYEAR=2008
DGENRE=Orishas
TTITLE0=Obaralá
TTITLE1=Obbá
TTITLE2=Yewá
TTITLE3=Iroko
TTITLE4=Oyá
TTITLE5=Yemayá
TTITLE6=Oshún
TTITLE7=Olofin - Obbuá
TTITLE8=Orula
TTITLE9=Oggún
TTITLE10=Eggún
EXTD=
EXTT0=
EXTT1=
EXTT2=
EXTT3=
EXTT4=
EXTT5=
EXTT6=
EXTT7=
EXTT8=
EXTT9=
EXTT10=
PLAYORDER=
